# xmcd
#
# Track frame offsets:
# 150
# 12082
# 22005
# 35373
# 48960
# 62336
# 73984
# 88245
# 98638
# 110021
#
# Disc length: 1626 seconds
#
#
# Revision: 0
# Processed by: cddbd v1.5PL3 Copyright (c) Steve Scherf et al.
# Submitted via: FreeRIP 2.53 
#
DISCID=7e06580a
DTITLE=Paycheck, Johnny - Best Of
DYEAR=1900
DGENRE=Country
TTITLE0=Take This Job and Shove It
TTITLE1=Mr. Lovemaker
TTITLE2=She's All I Got
TTITLE3=Someone To Give My love to
TTITLE4=Slide Off Your Satin Sheets
TTITLE5=Song and Dance Man
TTITLE6=I'm The Only Hell My Mama Raised
TTITLE7=Motel Time Again
TTITLE8=For A Minute There
TTITLE9=Something About Your Love
EXTD=
EXTT0=
EXTT1=
EXTT2=
EXTT3=
EXTT4=
EXTT5=
EXTT6=
EXTT7=
EXTT8=
EXTT9=
PLAYORDER=
